<?xml version="1.0" encoding="UTF-8" standalone="no"?>
<!DOCTYPE svg PUBLIC "-//W3C//DTD SVG 1.1//EN"
 "http://www.w3.org/Graphics/SVG/1.1/DTD/svg11.dtd">
<!-- Generated by graphviz version 2.28.0 (20110507.0327)
 -->
<!-- Title: G Pages: 1 -->
<svg width="258pt" height="636pt"
 viewBox="0.00 0.00 258.00 636.00" xmlns="http://www.w3.org/2000/svg" xmlns:xlink="http://www.w3.org/1999/xlink">
<g id="graph1" class="graph" transform="scale(1 1) rotate(0) translate(4 632)">
<title>G</title>
<polygon fill="white" stroke="white" points="-4,5 -4,-632 255,-632 255,5 -4,5"/>
<g id="graph2" class="cluster"><title>cluster_global</title>
<polyline fill="none" stroke="gray" points="160,-8 230,-8 "/>
<path fill="none" stroke="gray" d="M230,-8C236,-8 242,-14 242,-20"/>
<polyline fill="none" stroke="gray" points="242,-20 242,-608 "/>
<path fill="none" stroke="gray" d="M242,-608C242,-614 236,-620 230,-620"/>
<polyline fill="none" stroke="gray" points="230,-620 160,-620 "/>
<path fill="none" stroke="gray" d="M160,-620C154,-620 148,-614 148,-608"/>
<polyline fill="none" stroke="gray" points="148,-608 148,-20 "/>
<path fill="none" stroke="gray" d="M148,-20C148,-14 154,-8 160,-8"/>
<text text-anchor="middle" x="195" y="-607.2" font-family="Times New Roman,serif" font-size="11.00" fill="gray">global</text>
</g>
<!-- \\captcha -->
<g id="node2" class="node"><title>\\captcha</title>
<a xlink:href="assets.captcha.class.html" xlink:title="captcha" target="_parent">
<polygon fill="none" stroke="black" points="227,-592 163,-592 163,-556 227,-556 227,-592"/>
<text text-anchor="middle" x="195" y="-571.2" font-family="Courier,monospace" font-size="11.00">captcha</text>
</a>
</g>
<!-- \\Config -->
<g id="node3" class="node"><title>\\Config</title>
<a xlink:href="assets.config.class.html" xlink:title="Config" target="_parent">
<polygon fill="none" stroke="black" points="223.5,-538 166.5,-538 166.5,-502 223.5,-502 223.5,-538"/>
<text text-anchor="middle" x="195" y="-517.2" font-family="Courier,monospace" font-size="11.00">Config</text>
</a>
</g>
<!-- \\Csv -->
<g id="node4" class="node"><title>\\Csv</title>
<a xlink:href="assets.csv.class.html" xlink:title="Csv" target="_parent">
<polygon fill="none" stroke="black" points="222,-484 168,-484 168,-448 222,-448 222,-484"/>
<text text-anchor="middle" x="195" y="-463.2" font-family="Courier,monospace" font-size="11.00">Csv</text>
</a>
</g>
<!-- \\CsvReader -->
<g id="node5" class="node"><title>\\CsvReader</title>
<a xlink:href="assets.csv.class.html" xlink:title="CsvReader" target="_parent">
<polygon fill="none" stroke="black" points="233.5,-430 156.5,-430 156.5,-394 233.5,-394 233.5,-430"/>
<text text-anchor="middle" x="195" y="-409.2" font-family="Courier,monospace" font-size="11.00">CsvReader</text>
</a>
</g>
<!-- \\Iterator -->
<g id="node14" class="node"><title>\\Iterator</title>
<ellipse fill="none" stroke="black" cx="42" cy="-412" rx="42.4939" ry="18"/>
<text text-anchor="middle" x="42" y="-408.3" font-family="Times New Roman,serif" font-size="14.00" fill="gray">\\Iterator</text>
</g>
<!-- \\CsvReader&#45;&gt;\\Iterator -->
<g id="edge3" class="edge"><title>\\CsvReader&#45;&gt;\\Iterator</title>
<path fill="none" stroke="black" stroke-dasharray="1,5" d="M156.286,-412C137.604,-412 114.763,-412 94.497,-412"/>
<polygon fill="none" stroke="black" points="94.4784,-408.5 84.4783,-412 94.4783,-415.5 94.4784,-408.5"/>
</g>
<!-- \\CsvWriter -->
<g id="node6" class="node"><title>\\CsvWriter</title>
<a xlink:href="assets.csv.class.html" xlink:title="CsvWriter" target="_parent">
<polygon fill="none" stroke="black" points="233.5,-376 156.5,-376 156.5,-340 233.5,-340 233.5,-376"/>
<text text-anchor="middle" x="195" y="-355.2" font-family="Courier,monospace" font-size="11.00">CsvWriter</text>
</a>
</g>
<!-- \\database -->
<g id="node7" class="node"><title>\\database</title>
<a xlink:href="assets.database.class.html" xlink:title="database" target="_parent">
<polygon fill="none" stroke="black" points="230.5,-322 159.5,-322 159.5,-286 230.5,-286 230.5,-322"/>
<text text-anchor="middle" x="195" y="-301.2" font-family="Courier,monospace" font-size="11.00">database</text>
</a>
</g>
<!-- \\mailer -->
<g id="node8" class="node"><title>\\mailer</title>
<a xlink:href="assets.mailer.class.html" xlink:title="mailer" target="_parent">
<polygon fill="none" stroke="black" points="223.5,-268 166.5,-268 166.5,-232 223.5,-232 223.5,-268"/>
<text text-anchor="middle" x="195" y="-247.2" font-family="Courier,monospace" font-size="11.00">mailer</text>
</a>
</g>
<!-- \\member -->
<g id="node9" class="node"><title>\\member</title>
<a xlink:href="assets.member.class.html" xlink:title="member" target="_parent">
<polygon fill="none" stroke="black" points="223.5,-214 166.5,-214 166.5,-178 223.5,-178 223.5,-214"/>
<text text-anchor="middle" x="195" y="-193.2" font-family="Courier,monospace" font-size="11.00">member</text>
</a>
</g>
<!-- \\notice -->
<g id="node10" class="node"><title>\\notice</title>
<a xlink:href="assets.notice.class.html" xlink:title="notice" target="_parent">
<polygon fill="none" stroke="black" points="223.5,-160 166.5,-160 166.5,-124 223.5,-124 223.5,-160"/>
<text text-anchor="middle" x="195" y="-139.2" font-family="Courier,monospace" font-size="11.00">notice</text>
</a>
</g>
<!-- \\Sensors -->
<g id="node11" class="node"><title>\\Sensors</title>
<a xlink:href="assets.sensors.class.html" xlink:title="Sensors" target="_parent">
<polygon fill="none" stroke="black" points="227,-106 163,-106 163,-70 227,-70 227,-106"/>
<text text-anchor="middle" x="195" y="-85.2" font-family="Courier,monospace" font-size="11.00">Sensors</text>
</a>
</g>
<!-- \\UPD -->
<g id="node12" class="node"><title>\\UPD</title>
<a xlink:href="assets.upd.class.html" xlink:title="UPD" target="_parent">
<polygon fill="none" stroke="black" points="222,-52 168,-52 168,-16 222,-16 222,-52"/>
<text text-anchor="middle" x="195" y="-31.2" font-family="Courier,monospace" font-size="11.00">UPD</text>
</a>
</g>
</g>
</svg>
