<?xml version="1.0" encoding="UTF-8" standalone="no"?>
<!DOCTYPE svg PUBLIC "-//W3C//DTD SVG 1.1//EN"
 "http://www.w3.org/Graphics/SVG/1.1/DTD/svg11.dtd">
<!-- Generated by graphviz version 2.28.0 (20110507.0327)
 -->
<!-- Title: G Pages: 1 -->
<svg width="112pt" height="474pt"
 viewBox="0.00 0.00 112.00 474.00" xmlns="http://www.w3.org/2000/svg" xmlns:xlink="http://www.w3.org/1999/xlink">
<g id="graph1" class="graph" transform="scale(1 1) rotate(0) translate(4 470)">
<title>G</title>
<polygon fill="white" stroke="white" points="-4,5 -4,-470 109,-470 109,5 -4,5"/>
<g id="graph2" class="cluster"><title>cluster_global</title>
<polyline fill="none" stroke="gray" points="20,-8 84,-8 "/>
<path fill="none" stroke="gray" d="M84,-8C90,-8 96,-14 96,-20"/>
<polyline fill="none" stroke="gray" points="96,-20 96,-446 "/>
<path fill="none" stroke="gray" d="M96,-446C96,-452 90,-458 84,-458"/>
<polyline fill="none" stroke="gray" points="84,-458 20,-458 "/>
<path fill="none" stroke="gray" d="M20,-458C14,-458 8,-452 8,-446"/>
<polyline fill="none" stroke="gray" points="8,-446 8,-20 "/>
<path fill="none" stroke="gray" d="M8,-20C8,-14 14,-8 20,-8"/>
<text text-anchor="middle" x="52" y="-445.2" font-family="Times New Roman,serif" font-size="11.00" fill="gray">global</text>
</g>
<!-- \\captcha -->
<g id="node2" class="node"><title>\\captcha</title>
<a xlink:href="assets.captcha.class.html" xlink:title="captcha" target="_parent">
<polygon fill="none" stroke="black" points="84,-430 20,-430 20,-394 84,-394 84,-430"/>
<text text-anchor="middle" x="52" y="-409.2" font-family="Courier,monospace" font-size="11.00">captcha</text>
</a>
</g>
<!-- \\Config -->
<g id="node3" class="node"><title>\\Config</title>
<a xlink:href="assets.config.class.html" xlink:title="Config" target="_parent">
<polygon fill="none" stroke="black" points="80.5,-376 23.5,-376 23.5,-340 80.5,-340 80.5,-376"/>
<text text-anchor="middle" x="52" y="-355.2" font-family="Courier,monospace" font-size="11.00">Config</text>
</a>
</g>
<!-- \\database -->
<g id="node4" class="node"><title>\\database</title>
<a xlink:href="assets.database.class.html" xlink:title="database" target="_parent">
<polygon fill="none" stroke="black" points="87.5,-322 16.5,-322 16.5,-286 87.5,-286 87.5,-322"/>
<text text-anchor="middle" x="52" y="-301.2" font-family="Courier,monospace" font-size="11.00">database</text>
</a>
</g>
<!-- \\mailer -->
<g id="node5" class="node"><title>\\mailer</title>
<a xlink:href="assets.mailer.class.html" xlink:title="mailer" target="_parent">
<polygon fill="none" stroke="black" points="80.5,-268 23.5,-268 23.5,-232 80.5,-232 80.5,-268"/>
<text text-anchor="middle" x="52" y="-247.2" font-family="Courier,monospace" font-size="11.00">mailer</text>
</a>
</g>
<!-- \\member -->
<g id="node6" class="node"><title>\\member</title>
<a xlink:href="assets.member.class.html" xlink:title="member" target="_parent">
<polygon fill="none" stroke="black" points="80.5,-214 23.5,-214 23.5,-178 80.5,-178 80.5,-214"/>
<text text-anchor="middle" x="52" y="-193.2" font-family="Courier,monospace" font-size="11.00">member</text>
</a>
</g>
<!-- \\notice -->
<g id="node7" class="node"><title>\\notice</title>
<a xlink:href="assets.notice.class.html" xlink:title="notice" target="_parent">
<polygon fill="none" stroke="black" points="80.5,-160 23.5,-160 23.5,-124 80.5,-124 80.5,-160"/>
<text text-anchor="middle" x="52" y="-139.2" font-family="Courier,monospace" font-size="11.00">notice</text>
</a>
</g>
<!-- \\Sensors -->
<g id="node8" class="node"><title>\\Sensors</title>
<a xlink:href="assets.sensors.class.html" xlink:title="Sensors" target="_parent">
<polygon fill="none" stroke="black" points="84,-106 20,-106 20,-70 84,-70 84,-106"/>
<text text-anchor="middle" x="52" y="-85.2" font-family="Courier,monospace" font-size="11.00">Sensors</text>
</a>
</g>
<!-- \\UPD -->
<g id="node9" class="node"><title>\\UPD</title>
<a xlink:href="assets.upd.class.html" xlink:title="UPD" target="_parent">
<polygon fill="none" stroke="black" points="79,-52 25,-52 25,-16 79,-16 79,-52"/>
<text text-anchor="middle" x="52" y="-31.2" font-family="Courier,monospace" font-size="11.00">UPD</text>
</a>
</g>
</g>
</svg>
