<?xml version="1.0" encoding="UTF-8" standalone="no"?>
<!DOCTYPE svg PUBLIC "-//W3C//DTD SVG 1.1//EN"
 "http://www.w3.org/Graphics/SVG/1.1/DTD/svg11.dtd">
<!-- Generated by graphviz version 2.28.0 (20110507.0327)
 -->
<!-- Title: G Pages: 1 -->
<svg width="144pt" height="528pt"
 viewBox="0.00 0.00 144.00 528.00" xmlns="http://www.w3.org/2000/svg" xmlns:xlink="http://www.w3.org/1999/xlink">
<g id="graph1" class="graph" transform="scale(1 1) rotate(0) translate(4 524)">
<title>G</title>
<polygon fill="white" stroke="white" points="-4,5 -4,-524 141,-524 141,5 -4,5"/>
<g id="graph2" class="cluster"><title>cluster_global</title>
<polyline fill="none" stroke="gray" points="20,-8 116,-8 "/>
<path fill="none" stroke="gray" d="M116,-8C122,-8 128,-14 128,-20"/>
<polyline fill="none" stroke="gray" points="128,-20 128,-500 "/>
<path fill="none" stroke="gray" d="M128,-500C128,-506 122,-512 116,-512"/>
<polyline fill="none" stroke="gray" points="116,-512 20,-512 "/>
<path fill="none" stroke="gray" d="M20,-512C14,-512 8,-506 8,-500"/>
<polyline fill="none" stroke="gray" points="8,-500 8,-20 "/>
<path fill="none" stroke="gray" d="M8,-20C8,-14 14,-8 20,-8"/>
<text text-anchor="middle" x="68" y="-499.2" font-family="Times New Roman,serif" font-size="11.00" fill="gray">global</text>
</g>
<!-- \\captcha -->
<g id="node2" class="node"><title>\\captcha</title>
<a xlink:href="assets.captcha.class.html" xlink:title="captcha" target="_parent">
<polygon fill="none" stroke="black" points="100,-484 36,-484 36,-448 100,-448 100,-484"/>
<text text-anchor="middle" x="68" y="-463.2" font-family="Courier,monospace" font-size="11.00">captcha</text>
</a>
</g>
<!-- \\Config -->
<g id="node3" class="node"><title>\\Config</title>
<a xlink:href="assets.config.class.html" xlink:title="Config" target="_parent">
<polygon fill="none" stroke="black" points="96.5,-430 39.5,-430 39.5,-394 96.5,-394 96.5,-430"/>
<text text-anchor="middle" x="68" y="-409.2" font-family="Courier,monospace" font-size="11.00">Config</text>
</a>
</g>
<!-- \\database -->
<g id="node4" class="node"><title>\\database</title>
<a xlink:href="assets.database.class.html" xlink:title="database" target="_parent">
<polygon fill="none" stroke="black" points="103.5,-376 32.5,-376 32.5,-340 103.5,-340 103.5,-376"/>
<text text-anchor="middle" x="68" y="-355.2" font-family="Courier,monospace" font-size="11.00">database</text>
</a>
</g>
<!-- \\UploadHandler -->
<g id="node5" class="node"><title>\\UploadHandler</title>
<a xlink:href="assets.lib.jQuery_File_Upload.server.php.upload.class.html" xlink:title="UploadHandler" target="_parent">
<polygon fill="none" stroke="black" points="120,-322 16,-322 16,-286 120,-286 120,-322"/>
<text text-anchor="middle" x="68" y="-301.2" font-family="Courier,monospace" font-size="11.00">UploadHandler</text>
</a>
</g>
<!-- \\mailer -->
<g id="node6" class="node"><title>\\mailer</title>
<a xlink:href="assets.mailer.class.html" xlink:title="mailer" target="_parent">
<polygon fill="none" stroke="black" points="96.5,-268 39.5,-268 39.5,-232 96.5,-232 96.5,-268"/>
<text text-anchor="middle" x="68" y="-247.2" font-family="Courier,monospace" font-size="11.00">mailer</text>
</a>
</g>
<!-- \\member -->
<g id="node7" class="node"><title>\\member</title>
<a xlink:href="assets.member.class.html" xlink:title="member" target="_parent">
<polygon fill="none" stroke="black" points="96.5,-214 39.5,-214 39.5,-178 96.5,-178 96.5,-214"/>
<text text-anchor="middle" x="68" y="-193.2" font-family="Courier,monospace" font-size="11.00">member</text>
</a>
</g>
<!-- \\notice -->
<g id="node8" class="node"><title>\\notice</title>
<a xlink:href="assets.notice.class.html" xlink:title="notice" target="_parent">
<polygon fill="none" stroke="black" points="96.5,-160 39.5,-160 39.5,-124 96.5,-124 96.5,-160"/>
<text text-anchor="middle" x="68" y="-139.2" font-family="Courier,monospace" font-size="11.00">notice</text>
</a>
</g>
<!-- \\Sensors -->
<g id="node9" class="node"><title>\\Sensors</title>
<a xlink:href="assets.sensors.class.html" xlink:title="Sensors" target="_parent">
<polygon fill="none" stroke="black" points="100,-106 36,-106 36,-70 100,-70 100,-106"/>
<text text-anchor="middle" x="68" y="-85.2" font-family="Courier,monospace" font-size="11.00">Sensors</text>
</a>
</g>
<!-- \\UPD -->
<g id="node10" class="node"><title>\\UPD</title>
<a xlink:href="assets.upd.class.html" xlink:title="UPD" target="_parent">
<polygon fill="none" stroke="black" points="95,-52 41,-52 41,-16 95,-16 95,-52"/>
<text text-anchor="middle" x="68" y="-31.2" font-family="Courier,monospace" font-size="11.00">UPD</text>
</a>
</g>
</g>
</svg>
