<?xml version="1.0" encoding="UTF-8" standalone="no"?>
<!DOCTYPE svg PUBLIC "-//W3C//DTD SVG 1.1//EN"
 "http://www.w3.org/Graphics/SVG/1.1/DTD/svg11.dtd">
<!-- Generated by graphviz version 2.28.0 (20110507.0327)
 -->
<!-- Title: G Pages: 1 -->
<svg width="484pt" height="2054pt"
 viewBox="0.00 0.00 484.00 2054.00" xmlns="http://www.w3.org/2000/svg" xmlns:xlink="http://www.w3.org/1999/xlink">
<g id="graph1" class="graph" transform="scale(1 1) rotate(0) translate(4 2050)">
<title>G</title>
<polygon fill="white" stroke="white" points="-4,5 -4,-2050 481,-2050 481,5 -4,5"/>
<g id="graph2" class="cluster"><title>cluster_app</title>
<polyline fill="none" stroke="gray" points="85,-8 440,-8 "/>
<path fill="none" stroke="gray" d="M440,-8C446,-8 452,-14 452,-20"/>
<polyline fill="none" stroke="gray" points="452,-20 452,-588 "/>
<path fill="none" stroke="gray" d="M452,-588C452,-594 446,-600 440,-600"/>
<polyline fill="none" stroke="gray" points="440,-600 85,-600 "/>
<path fill="none" stroke="gray" d="M85,-600C79,-600 73,-594 73,-588"/>
<polyline fill="none" stroke="gray" points="73,-588 73,-20 "/>
<path fill="none" stroke="gray" d="M73,-20C73,-14 79,-8 85,-8"/>
<text text-anchor="middle" x="262.5" y="-587.2" font-family="Times New Roman,serif" font-size="11.00" fill="gray">app</text>
</g>
<g id="graph3" class="cluster"><title>cluster_app\config</title>
<polyline fill="none" stroke="gray" points="372,-500 422,-500 "/>
<path fill="none" stroke="gray" d="M422,-500C428,-500 434,-506 434,-512"/>
<polyline fill="none" stroke="gray" points="434,-512 434,-560 "/>
<path fill="none" stroke="gray" d="M434,-560C434,-566 428,-572 422,-572"/>
<polyline fill="none" stroke="gray" points="422,-572 372,-572 "/>
<path fill="none" stroke="gray" d="M372,-572C366,-572 360,-566 360,-560"/>
<polyline fill="none" stroke="gray" points="360,-560 360,-512 "/>
<path fill="none" stroke="gray" d="M360,-512C360,-506 366,-500 372,-500"/>
<text text-anchor="middle" x="397" y="-559.2" font-family="Times New Roman,serif" font-size="11.00" fill="gray">config</text>
</g>
<g id="graph4" class="cluster"><title>cluster_app\controller</title>
<polyline fill="none" stroke="gray" points="365,-258 429,-258 "/>
<path fill="none" stroke="gray" d="M429,-258C435,-258 441,-264 441,-270"/>
<polyline fill="none" stroke="gray" points="441,-270 441,-480 "/>
<path fill="none" stroke="gray" d="M441,-480C441,-486 435,-492 429,-492"/>
<polyline fill="none" stroke="gray" points="429,-492 365,-492 "/>
<path fill="none" stroke="gray" d="M365,-492C359,-492 353,-486 353,-480"/>
<polyline fill="none" stroke="gray" points="353,-480 353,-270 "/>
<path fill="none" stroke="gray" d="M353,-270C353,-264 359,-258 365,-258"/>
<text text-anchor="middle" x="397" y="-479.2" font-family="Times New Roman,serif" font-size="11.00" fill="gray">controller</text>
</g>
<g id="graph5" class="cluster"><title>cluster_app\core</title>
<polyline fill="none" stroke="gray" points="93,-285 169,-285 "/>
<path fill="none" stroke="gray" d="M169,-285C175,-285 181,-291 181,-297"/>
<polyline fill="none" stroke="gray" points="181,-297 181,-399 "/>
<path fill="none" stroke="gray" d="M181,-399C181,-405 175,-411 169,-411"/>
<polyline fill="none" stroke="gray" points="169,-411 93,-411 "/>
<path fill="none" stroke="gray" d="M93,-411C87,-411 81,-405 81,-399"/>
<polyline fill="none" stroke="gray" points="81,-399 81,-297 "/>
<path fill="none" stroke="gray" d="M81,-297C81,-291 87,-285 93,-285"/>
<text text-anchor="middle" x="131" y="-398.2" font-family="Times New Roman,serif" font-size="11.00" fill="gray">core</text>
</g>
<g id="graph6" class="cluster"><title>cluster_app\lib</title>
<polyline fill="none" stroke="gray" points="362,-16 432,-16 "/>
<path fill="none" stroke="gray" d="M432,-16C438,-16 444,-22 444,-28"/>
<polyline fill="none" stroke="gray" points="444,-28 444,-238 "/>
<path fill="none" stroke="gray" d="M444,-238C444,-244 438,-250 432,-250"/>
<polyline fill="none" stroke="gray" points="432,-250 362,-250 "/>
<path fill="none" stroke="gray" d="M362,-250C356,-250 350,-244 350,-238"/>
<polyline fill="none" stroke="gray" points="350,-238 350,-28 "/>
<path fill="none" stroke="gray" d="M350,-28C350,-22 356,-16 362,-16"/>
<text text-anchor="middle" x="397" y="-237.2" font-family="Times New Roman,serif" font-size="11.00" fill="gray">lib</text>
</g>
<g id="graph7" class="cluster"><title>cluster_global</title>
<polyline fill="none" stroke="gray" points="338,-608 456,-608 "/>
<path fill="none" stroke="gray" d="M456,-608C462,-608 468,-614 468,-620"/>
<polyline fill="none" stroke="gray" points="468,-620 468,-1748 "/>
<path fill="none" stroke="gray" d="M468,-1748C468,-1754 462,-1760 456,-1760"/>
<polyline fill="none" stroke="gray" points="456,-1760 338,-1760 "/>
<path fill="none" stroke="gray" d="M338,-1760C332,-1760 326,-1754 326,-1748"/>
<polyline fill="none" stroke="gray" points="326,-1748 326,-620 "/>
<path fill="none" stroke="gray" d="M326,-620C326,-614 332,-608 338,-608"/>
<text text-anchor="middle" x="397" y="-1747.2" font-family="Times New Roman,serif" font-size="11.00" fill="gray">global</text>
</g>
<g id="graph8" class="cluster"><title>cluster_nx</title>
<polyline fill="none" stroke="gray" points="351,-1768 443,-1768 "/>
<path fill="none" stroke="gray" d="M443,-1768C449,-1768 455,-1774 455,-1780"/>
<polyline fill="none" stroke="gray" points="455,-1780 455,-2026 "/>
<path fill="none" stroke="gray" d="M455,-2026C455,-2032 449,-2038 443,-2038"/>
<polyline fill="none" stroke="gray" points="443,-2038 351,-2038 "/>
<path fill="none" stroke="gray" d="M351,-2038C345,-2038 339,-2032 339,-2026"/>
<polyline fill="none" stroke="gray" points="339,-2026 339,-1780 "/>
<path fill="none" stroke="gray" d="M339,-1780C339,-1774 345,-1768 351,-1768"/>
<text text-anchor="middle" x="397" y="-2025.2" font-family="Times New Roman,serif" font-size="11.00" fill="gray">nx</text>
</g>
<g id="graph9" class="cluster"><title>cluster_nx\core</title>
<polyline fill="none" stroke="gray" points="359,-1776 435,-1776 "/>
<path fill="none" stroke="gray" d="M435,-1776C441,-1776 447,-1782 447,-1788"/>
<polyline fill="none" stroke="gray" points="447,-1788 447,-1998 "/>
<path fill="none" stroke="gray" d="M447,-1998C447,-2004 441,-2010 435,-2010"/>
<polyline fill="none" stroke="gray" points="435,-2010 359,-2010 "/>
<path fill="none" stroke="gray" d="M359,-2010C353,-2010 347,-2004 347,-1998"/>
<polyline fill="none" stroke="gray" points="347,-1998 347,-1788 "/>
<path fill="none" stroke="gray" d="M347,-1788C347,-1782 353,-1776 359,-1776"/>
<text text-anchor="middle" x="397" y="-1997.2" font-family="Times New Roman,serif" font-size="11.00" fill="gray">core</text>
</g>
<!-- \\app\\config\\Routes -->
<g id="node3" class="node"><title>\\app\\config\\Routes</title>
<a xlink:href="vendor.VisualPHPUnit.app.config.Routes.html" xlink:title="Routes" target="_parent">
<polygon fill="none" stroke="black" points="425.5,-544 368.5,-544 368.5,-508 425.5,-508 425.5,-544"/>
<text text-anchor="middle" x="397" y="-523.2" font-family="Courier,monospace" font-size="11.00">Routes</text>
</a>
</g>
<!-- \\app\\controller\\Archives -->
<g id="node5" class="node"><title>\\app\\controller\\Archives</title>
<a xlink:href="vendor.VisualPHPUnit.app.controller.Archives.html" xlink:title="Archives" target="_parent">
<polygon fill="none" stroke="black" points="432.5,-464 361.5,-464 361.5,-428 432.5,-428 432.5,-464"/>
<text text-anchor="middle" x="397" y="-443.2" font-family="Courier,monospace" font-size="11.00">Archives</text>
</a>
</g>
<!-- \\app\\core\\Controller -->
<g id="node10" class="node"><title>\\app\\core\\Controller</title>
<a xlink:href="vendor.VisualPHPUnit.app.core.Controller.html" xlink:title="Controller" target="_parent">
<polygon fill="none" stroke="black" points="173,-383 89,-383 89,-347 173,-347 173,-383"/>
<text text-anchor="middle" x="131" y="-362.2" font-family="Courier,monospace" font-size="11.00">Controller</text>
</a>
</g>
<!-- \\app\\controller\\Archives&#45;&gt;\\app\\core\\Controller -->
<g id="edge14" class="edge"><title>\\app\\controller\\Archives&#45;&gt;\\app\\core\\Controller</title>
<path fill="none" stroke="black" d="M361.196,-433.327C349.877,-429.006 337.319,-423.999 326,-419 296.909,-406.152 292.231,-396.872 262,-387 236.677,-378.731 207.513,-373.433 183.232,-370.115"/>
<polygon fill="none" stroke="black" points="183.517,-366.622 173.151,-368.811 182.619,-373.565 183.517,-366.622"/>
</g>
<!-- \\app\\controller\\FileList -->
<g id="node6" class="node"><title>\\app\\controller\\FileList</title>
<a xlink:href="vendor.VisualPHPUnit.app.controller.FileList.html" xlink:title="FileList" target="_parent">
<polygon fill="none" stroke="black" points="432.5,-410 361.5,-410 361.5,-374 432.5,-374 432.5,-410"/>
<text text-anchor="middle" x="397" y="-389.2" font-family="Courier,monospace" font-size="11.00">FileList</text>
</a>
</g>
<!-- \\app\\controller\\FileList&#45;&gt;\\app\\core\\Controller -->
<g id="edge16" class="edge"><title>\\app\\controller\\FileList&#45;&gt;\\app\\core\\Controller</title>
<path fill="none" stroke="black" d="M361.487,-388.47C316.019,-383.82 235.685,-375.604 183.147,-370.231"/>
<polygon fill="none" stroke="black" points="183.332,-366.732 173.028,-369.196 182.62,-373.695 183.332,-366.732"/>
</g>
<!-- \\app\\controller\\Graph -->
<g id="node7" class="node"><title>\\app\\controller\\Graph</title>
<a xlink:href="vendor.VisualPHPUnit.app.controller.Graph.html" xlink:title="Graph" target="_parent">
<polygon fill="none" stroke="black" points="424,-356 370,-356 370,-320 424,-320 424,-356"/>
<text text-anchor="middle" x="397" y="-335.2" font-family="Courier,monospace" font-size="11.00">Graph</text>
</a>
</g>
<!-- \\app\\controller\\Graph&#45;&gt;\\app\\core\\Controller -->
<g id="edge18" class="edge"><title>\\app\\controller\\Graph&#45;&gt;\\app\\core\\Controller</title>
<path fill="none" stroke="black" d="M369.722,-340.688C326.38,-345.12 239.155,-354.041 183.271,-359.756"/>
<polygon fill="none" stroke="black" points="182.81,-356.285 173.218,-360.784 183.523,-363.249 182.81,-356.285"/>
</g>
<!-- \\app\\controller\\Home -->
<g id="node8" class="node"><title>\\app\\controller\\Home</title>
<a xlink:href="vendor.VisualPHPUnit.app.controller.Home.html" xlink:title="Home" target="_parent">
<polygon fill="none" stroke="black" points="424,-302 370,-302 370,-266 424,-266 424,-302"/>
<text text-anchor="middle" x="397" y="-281.2" font-family="Courier,monospace" font-size="11.00">Home</text>
</a>
</g>
<!-- \\app\\controller\\Home&#45;&gt;\\app\\core\\Controller -->
<g id="edge20" class="edge"><title>\\app\\controller\\Home&#45;&gt;\\app\\core\\Controller</title>
<path fill="none" stroke="black" d="M369.995,-293.81C356.781,-298.851 340.494,-305.149 326,-311 297.372,-322.556 291.475,-328.818 262,-338 236.485,-345.949 207.417,-352.236 183.248,-356.735"/>
<polygon fill="none" stroke="black" points="182.429,-353.327 173.214,-358.554 183.678,-360.214 182.429,-353.327"/>
</g>
<!-- \\app\\core\\View -->
<g id="node11" class="node"><title>\\app\\core\\View</title>
<a xlink:href="vendor.VisualPHPUnit.app.core.View.html" xlink:title="View" target="_parent">
<polygon fill="none" stroke="black" points="158,-329 104,-329 104,-293 158,-293 158,-329"/>
<text text-anchor="middle" x="131" y="-308.2" font-family="Courier,monospace" font-size="11.00">View</text>
</a>
</g>
<!-- \\app\\lib\\Compiler -->
<g id="node13" class="node"><title>\\app\\lib\\Compiler</title>
<a xlink:href="vendor.VisualPHPUnit.app.lib.Compiler.html" xlink:title="Compiler" target="_parent">
<polygon fill="none" stroke="black" points="432.5,-222 361.5,-222 361.5,-186 432.5,-186 432.5,-222"/>
<text text-anchor="middle" x="397" y="-201.2" font-family="Courier,monospace" font-size="11.00">Compiler</text>
</a>
</g>
<!-- \\app\\lib\\Library -->
<g id="node14" class="node"><title>\\app\\lib\\Library</title>
<a xlink:href="vendor.VisualPHPUnit.app.lib.Library.html" xlink:title="Library" target="_parent">
<polygon fill="none" stroke="black" points="429,-168 365,-168 365,-132 429,-132 429,-168"/>
<text text-anchor="middle" x="397" y="-147.2" font-family="Courier,monospace" font-size="11.00">Library</text>
</a>
</g>
<!-- \\app\\lib\\PDO_MySQL -->
<g id="node15" class="node"><title>\\app\\lib\\PDO_MySQL</title>
<a xlink:href="vendor.VisualPHPUnit.app.lib.PDO_MySQL.html" xlink:title="PDO_MySQL" target="_parent">
<polygon fill="none" stroke="black" points="435.5,-114 358.5,-114 358.5,-78 435.5,-78 435.5,-114"/>
<text text-anchor="middle" x="397" y="-93.2" font-family="Courier,monospace" font-size="11.00">PDO_MySQL</text>
</a>
</g>
<!-- \\app\\lib\\VPU -->
<g id="node16" class="node"><title>\\app\\lib\\VPU</title>
<a xlink:href="vendor.VisualPHPUnit.app.lib.VPU.html" xlink:title="VPU" target="_parent">
<polygon fill="none" stroke="black" points="424,-60 370,-60 370,-24 424,-24 424,-60"/>
<text text-anchor="middle" x="397" y="-39.2" font-family="Courier,monospace" font-size="11.00">VPU</text>
</a>
</g>
<!-- \\captcha -->
<g id="node18" class="node"><title>\\captcha</title>
<a xlink:href="assets.captcha.class.html" xlink:title="captcha" target="_parent">
<polygon fill="none" stroke="black" points="429,-1732 365,-1732 365,-1696 429,-1696 429,-1732"/>
<text text-anchor="middle" x="397" y="-1711.2" font-family="Courier,monospace" font-size="11.00">captcha</text>
</a>
</g>
<!-- \\Config -->
<g id="node19" class="node"><title>\\Config</title>
<a xlink:href="assets.config.class.html" xlink:title="Config" target="_parent">
<polygon fill="none" stroke="black" points="425.5,-1678 368.5,-1678 368.5,-1642 425.5,-1642 425.5,-1678"/>
<text text-anchor="middle" x="397" y="-1657.2" font-family="Courier,monospace" font-size="11.00">Config</text>
</a>
</g>
<!-- \\database -->
<g id="node20" class="node"><title>\\database</title>
<a xlink:href="assets.database.class.html" xlink:title="database" target="_parent">
<polygon fill="none" stroke="black" points="432.5,-1624 361.5,-1624 361.5,-1588 432.5,-1588 432.5,-1624"/>
<text text-anchor="middle" x="397" y="-1603.2" font-family="Courier,monospace" font-size="11.00">database</text>
</a>
</g>
<!-- \\UploadHandler -->
<g id="node21" class="node"><title>\\UploadHandler</title>
<a xlink:href="assets.lib.jQuery_File_Upload.server.php.upload.class.html" xlink:title="UploadHandler" target="_parent">
<polygon fill="none" stroke="black" points="449,-1570 345,-1570 345,-1534 449,-1534 449,-1570"/>
<text text-anchor="middle" x="397" y="-1549.2" font-family="Courier,monospace" font-size="11.00">UploadHandler</text>
</a>
</g>
<!-- \\mailer -->
<g id="node22" class="node"><title>\\mailer</title>
<a xlink:href="assets.mailer.class.html" xlink:title="mailer" target="_parent">
<polygon fill="none" stroke="black" points="425.5,-1516 368.5,-1516 368.5,-1480 425.5,-1480 425.5,-1516"/>
<text text-anchor="middle" x="397" y="-1495.2" font-family="Courier,monospace" font-size="11.00">mailer</text>
</a>
</g>
<!-- \\member -->
<g id="node23" class="node"><title>\\member</title>
<a xlink:href="assets.member.class.html" xlink:title="member" target="_parent">
<polygon fill="none" stroke="black" points="425.5,-1462 368.5,-1462 368.5,-1426 425.5,-1426 425.5,-1462"/>
<text text-anchor="middle" x="397" y="-1441.2" font-family="Courier,monospace" font-size="11.00">member</text>
</a>
</g>
<!-- \\notice -->
<g id="node24" class="node"><title>\\notice</title>
<a xlink:href="assets.notice.class.html" xlink:title="notice" target="_parent">
<polygon fill="none" stroke="black" points="425.5,-1408 368.5,-1408 368.5,-1372 425.5,-1372 425.5,-1408"/>
<text text-anchor="middle" x="397" y="-1387.2" font-family="Courier,monospace" font-size="11.00">notice</text>
</a>
</g>
<!-- \\Sensors -->
<g id="node25" class="node"><title>\\Sensors</title>
<a xlink:href="assets.sensors.class.html" xlink:title="Sensors" target="_parent">
<polygon fill="none" stroke="black" points="429,-1354 365,-1354 365,-1318 429,-1318 429,-1354"/>
<text text-anchor="middle" x="397" y="-1333.2" font-family="Courier,monospace" font-size="11.00">Sensors</text>
</a>
</g>
<!-- \\UPD -->
<g id="node26" class="node"><title>\\UPD</title>
<a xlink:href="assets.upd.class.html" xlink:title="UPD" target="_parent">
<polygon fill="none" stroke="black" points="424,-1300 370,-1300 370,-1264 424,-1264 424,-1300"/>
<text text-anchor="middle" x="397" y="-1279.2" font-family="Courier,monospace" font-size="11.00">UPD</text>
</a>
</g>
<!-- \\Browser -->
<g id="node27" class="node"><title>\\Browser</title>
<a xlink:href="debug.error_browser.html" xlink:title="Browser" target="_parent">
<polygon fill="none" stroke="black" points="429,-1246 365,-1246 365,-1210 429,-1210 429,-1246"/>
<text text-anchor="middle" x="397" y="-1225.2" font-family="Courier,monospace" font-size="11.00">Browser</text>
</a>
</g>
<!-- \\MembersClassTest -->
<g id="node28" class="node"><title>\\MembersClassTest</title>
<a xlink:href="tests.MembersClassTest.html" xlink:title="MembersClassTest" target="_parent">
<polygon fill="none" stroke="black" points="459.5,-976 334.5,-976 334.5,-940 459.5,-940 459.5,-976"/>
<text text-anchor="middle" x="397" y="-955.2" font-family="Courier,monospace" font-size="11.00">MembersClassTest</text>
</a>
</g>
<!-- \\PHPUnit_Framework_TestCase -->
<g id="node46" class="node"><title>\\PHPUnit_Framework_TestCase</title>
<ellipse fill="none" stroke="black" cx="131" cy="-904" rx="130.777" ry="18"/>
<text text-anchor="middle" x="131" y="-900.3" font-family="Times New Roman,serif" font-size="14.00" fill="gray">\PHPUnit_Framework_TestCase</text>
</g>
<!-- \\MembersClassTest&#45;&gt;\\PHPUnit_Framework_TestCase -->
<g id="edge10" class="edge"><title>\\MembersClassTest&#45;&gt;\\PHPUnit_Framework_TestCase</title>
<path fill="none" stroke="black" d="M334.437,-945.408C298.911,-938.141 253.759,-928.905 215.116,-921.001"/>
<polygon fill="none" stroke="black" points="215.423,-917.491 204.924,-918.916 214.02,-924.349 215.423,-917.491"/>
</g>
<!-- \\Testify -->
<g id="node29" class="node"><title>\\Testify</title>
<a xlink:href="vendor.testify.testify.class.html" xlink:title="Testify" target="_parent">
<polygon fill="none" stroke="black" points="429,-1138 365,-1138 365,-1102 429,-1102 429,-1138"/>
<text text-anchor="middle" x="397" y="-1117.2" font-family="Courier,monospace" font-size="11.00">Testify</text>
</a>
</g>
<!-- \\TestifyException -->
<g id="node30" class="node"><title>\\TestifyException</title>
<a xlink:href="vendor.testify.testify.class.html" xlink:title="TestifyException" target="_parent">
<polygon fill="none" stroke="black" points="459.5,-652 334.5,-652 334.5,-616 459.5,-616 459.5,-652"/>
<text text-anchor="middle" x="397" y="-631.2" font-family="Courier,monospace" font-size="11.00">TestifyException</text>
</a>
</g>
<!-- \\Exception -->
<g id="node48" class="node"><title>\\Exception</title>
<ellipse fill="none" stroke="black" cx="131" cy="-634" rx="50.0912" ry="18"/>
<text text-anchor="middle" x="131" y="-630.3" font-family="Times New Roman,serif" font-size="14.00" fill="gray">\Exception</text>
</g>
<!-- \\TestifyException&#45;&gt;\\Exception -->
<g id="edge12" class="edge"><title>\\TestifyException&#45;&gt;\\Exception</title>
<path fill="none" stroke="black" d="M334.437,-634C291.365,-634 234.143,-634 191.527,-634"/>
<polygon fill="none" stroke="black" points="191.3,-630.5 181.3,-634 191.3,-637.5 191.3,-630.5"/>
</g>
<!-- \\DateTest -->
<g id="node31" class="node"><title>\\DateTest</title>
<a xlink:href="vendor.VisualPHPUnit.app.test.DateTest.html" xlink:title="DateTest" target="_parent">
<polygon fill="none" stroke="black" points="432.5,-922 361.5,-922 361.5,-886 432.5,-886 432.5,-922"/>
<text text-anchor="middle" x="397" y="-901.2" font-family="Courier,monospace" font-size="11.00">DateTest</text>
</a>
</g>
<!-- \\DateTest&#45;&gt;\\PHPUnit_Framework_TestCase -->
<g id="edge22" class="edge"><title>\\DateTest&#45;&gt;\\PHPUnit_Framework_TestCase</title>
<path fill="none" stroke="black" d="M361.487,-904C338.117,-904 305.537,-904 272.255,-904"/>
<polygon fill="none" stroke="black" points="271.912,-900.5 261.912,-904 271.912,-907.5 271.912,-900.5"/>
</g>
<!-- \\IncompleteTest -->
<g id="node32" class="node"><title>\\IncompleteTest</title>
<a xlink:href="vendor.VisualPHPUnit.app.test.IncompleteTest.html" xlink:title="IncompleteTest" target="_parent">
<polygon fill="none" stroke="black" points="452.5,-868 341.5,-868 341.5,-832 452.5,-832 452.5,-868"/>
<text text-anchor="middle" x="397" y="-847.2" font-family="Courier,monospace" font-size="11.00">IncompleteTest</text>
</a>
</g>
<!-- \\IncompleteTest&#45;&gt;\\PHPUnit_Framework_TestCase -->
<g id="edge24" class="edge"><title>\\IncompleteTest&#45;&gt;\\PHPUnit_Framework_TestCase</title>
<path fill="none" stroke="black" d="M341.299,-861.189C304.883,-868.638 256.348,-878.565 215.184,-886.985"/>
<polygon fill="none" stroke="black" points="214.259,-883.602 205.163,-889.035 215.662,-890.46 214.259,-883.602"/>
</g>
<!-- \\PUTest -->
<g id="node33" class="node"><title>\\PUTest</title>
<a xlink:href="vendor.VisualPHPUnit.app.test.PUTest.html" xlink:title="PUTest" target="_parent">
<polygon fill="none" stroke="black" points="425.5,-814 368.5,-814 368.5,-778 425.5,-778 425.5,-814"/>
<text text-anchor="middle" x="397" y="-793.2" font-family="Courier,monospace" font-size="11.00">PUTest</text>
</a>
</g>
<!-- \\PUTest&#45;&gt;\\PHPUnit_Framework_TestCase -->
<g id="edge26" class="edge"><title>\\PUTest&#45;&gt;\\PHPUnit_Framework_TestCase</title>
<path fill="none" stroke="black" d="M368.337,-806.47C355.438,-811.403 339.901,-817.418 326,-823 276.822,-842.746 221.023,-866.15 181.932,-882.71"/>
<polygon fill="none" stroke="black" points="180.208,-879.64 172.368,-886.766 182.941,-886.084 180.208,-879.64"/>
</g>
<!-- \\PUTest2 -->
<g id="node34" class="node"><title>\\PUTest2</title>
<a xlink:href="vendor.VisualPHPUnit.app.test.PUTest2.html" xlink:title="PUTest2" target="_parent">
<polygon fill="none" stroke="black" points="429,-760 365,-760 365,-724 429,-724 429,-760"/>
<text text-anchor="middle" x="397" y="-739.2" font-family="Courier,monospace" font-size="11.00">PUTest2</text>
</a>
</g>
<!-- \\PUTest2&#45;&gt;\\PHPUnit_Framework_TestCase -->
<g id="edge28" class="edge"><title>\\PUTest2&#45;&gt;\\PHPUnit_Framework_TestCase</title>
<path fill="none" stroke="black" d="M364.975,-752.151C352.559,-756.676 338.31,-762.465 326,-769 264.171,-801.823 198.595,-850.851 161.723,-879.91"/>
<polygon fill="none" stroke="black" points="159.523,-877.188 153.864,-886.145 163.873,-882.672 159.523,-877.188"/>
</g>
<!-- \\IncompleteTest2 -->
<g id="node35" class="node"><title>\\IncompleteTest2</title>
<a xlink:href="vendor.VisualPHPUnit.app.test.sample_dir.IncompleteTest2.html" xlink:title="IncompleteTest2" target="_parent">
<polygon fill="none" stroke="black" points="456,-706 338,-706 338,-670 456,-670 456,-706"/>
<text text-anchor="middle" x="397" y="-685.2" font-family="Courier,monospace" font-size="11.00">IncompleteTest2</text>
</a>
</g>
<!-- \\IncompleteTest2&#45;&gt;\\PHPUnit_Framework_TestCase -->
<g id="edge30" class="edge"><title>\\IncompleteTest2&#45;&gt;\\PHPUnit_Framework_TestCase</title>
<path fill="none" stroke="black" d="M342.15,-706.168C336.535,-708.822 331.044,-711.765 326,-715 253.572,-761.448 185.567,-838.059 152.667,-877.981"/>
<polygon fill="none" stroke="black" points="149.8,-875.958 146.19,-885.919 155.224,-880.384 149.8,-875.958"/>
</g>
<!-- \\PUTest3 -->
<g id="node36" class="node"><title>\\PUTest3</title>
<a xlink:href="vendor.VisualPHPUnit.app.test.sample_dir.PUTest3.html" xlink:title="PUTest3" target="_parent">
<polygon fill="none" stroke="black" points="429,-1192 365,-1192 365,-1156 429,-1156 429,-1192"/>
<text text-anchor="middle" x="397" y="-1171.2" font-family="Courier,monospace" font-size="11.00">PUTest3</text>
</a>
</g>
<!-- \\PUTest3&#45;&gt;\\PHPUnit_Framework_TestCase -->
<g id="edge32" class="edge"><title>\\PUTest3&#45;&gt;\\PHPUnit_Framework_TestCase</title>
<path fill="none" stroke="black" d="M364.941,-1165.94C352.105,-1161.65 337.555,-1155.47 326,-1147 242.562,-1085.83 175.326,-980.06 146.796,-930.749"/>
<polygon fill="none" stroke="black" points="149.767,-928.894 141.768,-921.946 143.688,-932.365 149.767,-928.894"/>
</g>
<!-- \\PUTest4 -->
<g id="node37" class="node"><title>\\PUTest4</title>
<a xlink:href="vendor.VisualPHPUnit.app.test.sample_dir.PUTest4.html" xlink:title="PUTest4" target="_parent">
<polygon fill="none" stroke="black" points="429,-1084 365,-1084 365,-1048 429,-1048 429,-1084"/>
<text text-anchor="middle" x="397" y="-1063.2" font-family="Courier,monospace" font-size="11.00">PUTest4</text>
</a>
</g>
<!-- \\PUTest4&#45;&gt;\\PHPUnit_Framework_TestCase -->
<g id="edge34" class="edge"><title>\\PUTest4&#45;&gt;\\PHPUnit_Framework_TestCase</title>
<path fill="none" stroke="black" d="M364.975,-1055.85C352.559,-1051.32 338.31,-1045.54 326,-1039 264.171,-1006.18 198.595,-957.149 161.723,-928.09"/>
<polygon fill="none" stroke="black" points="163.873,-925.328 153.864,-921.855 159.523,-930.812 163.873,-925.328"/>
</g>
<!-- \\SkippedTest -->
<g id="node38" class="node"><title>\\SkippedTest</title>
<a xlink:href="vendor.VisualPHPUnit.app.test.SkippedTest.html" xlink:title="SkippedTest" target="_parent">
<polygon fill="none" stroke="black" points="442.5,-1030 351.5,-1030 351.5,-994 442.5,-994 442.5,-1030"/>
<text text-anchor="middle" x="397" y="-1009.2" font-family="Courier,monospace" font-size="11.00">SkippedTest</text>
</a>
</g>
<!-- \\SkippedTest&#45;&gt;\\PHPUnit_Framework_TestCase -->
<g id="edge36" class="edge"><title>\\SkippedTest&#45;&gt;\\PHPUnit_Framework_TestCase</title>
<path fill="none" stroke="black" d="M351.491,-995.043C343.011,-991.752 334.219,-988.3 326,-985 276.822,-965.254 221.023,-941.85 181.932,-925.29"/>
<polygon fill="none" stroke="black" points="182.941,-921.916 172.368,-921.234 180.208,-928.36 182.941,-921.916"/>
</g>
<!-- \\nx\\core\\Dispatcher -->
<g id="node41" class="node"><title>\\nx\\core\\Dispatcher</title>
<a xlink:href="vendor.VisualPHPUnit.nx.core.Dispatcher.html" xlink:title="Dispatcher" target="_parent">
<polygon fill="none" stroke="black" points="439,-1982 355,-1982 355,-1946 439,-1946 439,-1982"/>
<text text-anchor="middle" x="397" y="-1961.2" font-family="Courier,monospace" font-size="11.00">Dispatcher</text>
</a>
</g>
<!-- \\nx\\core\\Request -->
<g id="node42" class="node"><title>\\nx\\core\\Request</title>
<a xlink:href="vendor.VisualPHPUnit.nx.core.Request.html" xlink:title="Request" target="_parent">
<polygon fill="none" stroke="black" points="429,-1928 365,-1928 365,-1892 429,-1892 429,-1928"/>
<text text-anchor="middle" x="397" y="-1907.2" font-family="Courier,monospace" font-size="11.00">Request</text>
</a>
</g>
<!-- \\nx\\core\\Response -->
<g id="node43" class="node"><title>\\nx\\core\\Response</title>
<a xlink:href="vendor.VisualPHPUnit.nx.core.Response.html" xlink:title="Response" target="_parent">
<polygon fill="none" stroke="black" points="432.5,-1874 361.5,-1874 361.5,-1838 432.5,-1838 432.5,-1874"/>
<text text-anchor="middle" x="397" y="-1853.2" font-family="Courier,monospace" font-size="11.00">Response</text>
</a>
</g>
<!-- \\nx\\core\\Router -->
<g id="node44" class="node"><title>\\nx\\core\\Router</title>
<a xlink:href="vendor.VisualPHPUnit.nx.core.Router.html" xlink:title="Router" target="_parent">
<polygon fill="none" stroke="black" points="425.5,-1820 368.5,-1820 368.5,-1784 425.5,-1784 425.5,-1820"/>
<text text-anchor="middle" x="397" y="-1799.2" font-family="Courier,monospace" font-size="11.00">Router</text>
</a>
</g>
</g>
</svg>
