<?xml version="1.0" encoding="UTF-8" standalone="no"?>
<!DOCTYPE svg PUBLIC "-//W3C//DTD SVG 1.1//EN"
 "http://www.w3.org/Graphics/SVG/1.1/DTD/svg11.dtd">
<!-- Generated by graphviz version 2.29.20120907.0445 (20120907.0445)
 -->
<!-- Title: G Pages: 1 -->
<svg width="110pt" height="528pt"
 viewBox="0.00 0.00 110.00 528.00" xmlns="http://www.w3.org/2000/svg" xmlns:xlink="http://www.w3.org/1999/xlink">
<g id="graph0" class="graph" transform="scale(1 1) rotate(0) translate(4 524)">
<title>G</title>
<polygon fill="white" stroke="white" points="-4,5 -4,-524 107,-524 107,5 -4,5"/>
<g id="clust1" class="cluster"><title>cluster_global</title>
<path fill="none" stroke="gray" d="M20,-8C20,-8 82,-8 82,-8 88,-8 94,-14 94,-20 94,-20 94,-500 94,-500 94,-506 88,-512 82,-512 82,-512 20,-512 20,-512 14,-512 8,-506 8,-500 8,-500 8,-20 8,-20 8,-14 14,-8 20,-8"/>
<text text-anchor="middle" x="51" y="-499.2" font-family="Times,serif" font-size="11.00" fill="gray">global</text>
</g>
<!-- \\captcha -->
<g id="node1" class="node"><title>\\captcha</title>
<g id="a_node1"><a xlink:href="assets.captcha.class.html" xlink:title="captcha" target="_parent">
<polygon fill="none" stroke="black" points="82.5,-484 19.5,-484 19.5,-448 82.5,-448 82.5,-484"/>
<text text-anchor="middle" x="51" y="-463.2" font-family="Courier,monospace" font-size="11.00">captcha</text>
</a>
</g>
</g>
<!-- \\Config -->
<g id="node2" class="node"><title>\\Config</title>
<g id="a_node2"><a xlink:href="assets.config.class.html" xlink:title="Config" target="_parent">
<polygon fill="none" stroke="black" points="79,-430 23,-430 23,-394 79,-394 79,-430"/>
<text text-anchor="middle" x="51" y="-409.2" font-family="Courier,monospace" font-size="11.00">Config</text>
</a>
</g>
</g>
<!-- \\database -->
<g id="node3" class="node"><title>\\database</title>
<g id="a_node3"><a xlink:href="assets.database.class.html" xlink:title="database" target="_parent">
<polygon fill="none" stroke="black" points="85.5,-376 16.5,-376 16.5,-340 85.5,-340 85.5,-376"/>
<text text-anchor="middle" x="51" y="-355.2" font-family="Courier,monospace" font-size="11.00">database</text>
</a>
</g>
</g>
<!-- \\mailer -->
<g id="node4" class="node"><title>\\mailer</title>
<g id="a_node4"><a xlink:href="assets.mailer.class.html" xlink:title="mailer" target="_parent">
<polygon fill="none" stroke="black" points="79,-322 23,-322 23,-286 79,-286 79,-322"/>
<text text-anchor="middle" x="51" y="-301.2" font-family="Courier,monospace" font-size="11.00">mailer</text>
</a>
</g>
</g>
<!-- \\member -->
<g id="node5" class="node"><title>\\member</title>
<g id="a_node5"><a xlink:href="assets.member.class.html" xlink:title="member" target="_parent">
<polygon fill="none" stroke="black" points="79,-268 23,-268 23,-232 79,-232 79,-268"/>
<text text-anchor="middle" x="51" y="-247.2" font-family="Courier,monospace" font-size="11.00">member</text>
</a>
</g>
</g>
<!-- \\notice -->
<g id="node6" class="node"><title>\\notice</title>
<g id="a_node6"><a xlink:href="assets.notice.class.html" xlink:title="notice" target="_parent">
<polygon fill="none" stroke="black" points="79,-214 23,-214 23,-178 79,-178 79,-214"/>
<text text-anchor="middle" x="51" y="-193.2" font-family="Courier,monospace" font-size="11.00">notice</text>
</a>
</g>
</g>
<!-- \\Sensors -->
<g id="node7" class="node"><title>\\Sensors</title>
<g id="a_node7"><a xlink:href="assets.sensors.class.html" xlink:title="Sensors" target="_parent">
<polygon fill="none" stroke="black" points="82.5,-160 19.5,-160 19.5,-124 82.5,-124 82.5,-160"/>
<text text-anchor="middle" x="51" y="-139.2" font-family="Courier,monospace" font-size="11.00">Sensors</text>
</a>
</g>
</g>
<!-- \\UPD -->
<g id="node8" class="node"><title>\\UPD</title>
<g id="a_node8"><a xlink:href="assets.upd.class.html" xlink:title="UPD" target="_parent">
<polygon fill="none" stroke="black" points="78,-106 24,-106 24,-70 78,-70 78,-106"/>
<text text-anchor="middle" x="51" y="-85.2" font-family="Courier,monospace" font-size="11.00">UPD</text>
</a>
</g>
</g>
<!-- \\Browser -->
<g id="node9" class="node"><title>\\Browser</title>
<g id="a_node9"><a xlink:href="debug.error_browser.html" xlink:title="Browser" target="_parent">
<polygon fill="none" stroke="black" points="82.5,-52 19.5,-52 19.5,-16 82.5,-16 82.5,-52"/>
<text text-anchor="middle" x="51" y="-31.2" font-family="Courier,monospace" font-size="11.00">Browser</text>
</a>
</g>
</g>
</g>
</svg>
