<?xml version="1.0" encoding="UTF-8" standalone="no"?>
<!DOCTYPE svg PUBLIC "-//W3C//DTD SVG 1.1//EN"
 "http://www.w3.org/Graphics/SVG/1.1/DTD/svg11.dtd">
<!-- Generated by graphviz version 2.28.0 (20110507.0327)
 -->
<!-- Title: G Pages: 1 -->
<svg width="470pt" height="636pt"
 viewBox="0.00 0.00 470.00 636.00" xmlns="http://www.w3.org/2000/svg" xmlns:xlink="http://www.w3.org/1999/xlink">
<g id="graph1" class="graph" transform="scale(1 1) rotate(0) translate(4 632)">
<title>G</title>
<polygon fill="white" stroke="white" points="-4,5 -4,-632 467,-632 467,5 -4,5"/>
<g id="graph2" class="cluster"><title>cluster_global</title>
<polyline fill="none" stroke="gray" points="338,-8 442,-8 "/>
<path fill="none" stroke="gray" d="M442,-8C448,-8 454,-14 454,-20"/>
<polyline fill="none" stroke="gray" points="454,-20 454,-608 "/>
<path fill="none" stroke="gray" d="M454,-608C454,-614 448,-620 442,-620"/>
<polyline fill="none" stroke="gray" points="442,-620 338,-620 "/>
<path fill="none" stroke="gray" d="M338,-620C332,-620 326,-614 326,-608"/>
<polyline fill="none" stroke="gray" points="326,-608 326,-20 "/>
<path fill="none" stroke="gray" d="M326,-20C326,-14 332,-8 338,-8"/>
<text text-anchor="middle" x="390" y="-607.2" font-family="Times New Roman,serif" font-size="11.00" fill="gray">global</text>
</g>
<!-- \\captcha -->
<g id="node2" class="node"><title>\\captcha</title>
<a xlink:href="assets.captcha.class.html" xlink:title="captcha" target="_parent">
<polygon fill="none" stroke="black" points="422,-592 358,-592 358,-556 422,-556 422,-592"/>
<text text-anchor="middle" x="390" y="-571.2" font-family="Courier,monospace" font-size="11.00">captcha</text>
</a>
</g>
<!-- \\Config -->
<g id="node3" class="node"><title>\\Config</title>
<a xlink:href="assets.config.class.html" xlink:title="Config" target="_parent">
<polygon fill="none" stroke="black" points="418.5,-538 361.5,-538 361.5,-502 418.5,-502 418.5,-538"/>
<text text-anchor="middle" x="390" y="-517.2" font-family="Courier,monospace" font-size="11.00">Config</text>
</a>
</g>
<!-- \\database -->
<g id="node4" class="node"><title>\\database</title>
<a xlink:href="assets.database.class.html" xlink:title="database" target="_parent">
<polygon fill="none" stroke="black" points="425.5,-484 354.5,-484 354.5,-448 425.5,-448 425.5,-484"/>
<text text-anchor="middle" x="390" y="-463.2" font-family="Courier,monospace" font-size="11.00">database</text>
</a>
</g>
<!-- \\mailer -->
<g id="node5" class="node"><title>\\mailer</title>
<a xlink:href="assets.mailer.class.html" xlink:title="mailer" target="_parent">
<polygon fill="none" stroke="black" points="418.5,-430 361.5,-430 361.5,-394 418.5,-394 418.5,-430"/>
<text text-anchor="middle" x="390" y="-409.2" font-family="Courier,monospace" font-size="11.00">mailer</text>
</a>
</g>
<!-- \\member -->
<g id="node6" class="node"><title>\\member</title>
<a xlink:href="assets.member.class.html" xlink:title="member" target="_parent">
<polygon fill="none" stroke="black" points="418.5,-376 361.5,-376 361.5,-340 418.5,-340 418.5,-376"/>
<text text-anchor="middle" x="390" y="-355.2" font-family="Courier,monospace" font-size="11.00">member</text>
</a>
</g>
<!-- \\notice -->
<g id="node7" class="node"><title>\\notice</title>
<a xlink:href="assets.notice.class.html" xlink:title="notice" target="_parent">
<polygon fill="none" stroke="black" points="418.5,-322 361.5,-322 361.5,-286 418.5,-286 418.5,-322"/>
<text text-anchor="middle" x="390" y="-301.2" font-family="Courier,monospace" font-size="11.00">notice</text>
</a>
</g>
<!-- \\Sensors -->
<g id="node8" class="node"><title>\\Sensors</title>
<a xlink:href="assets.sensors.class.html" xlink:title="Sensors" target="_parent">
<polygon fill="none" stroke="black" points="422,-268 358,-268 358,-232 422,-232 422,-268"/>
<text text-anchor="middle" x="390" y="-247.2" font-family="Courier,monospace" font-size="11.00">Sensors</text>
</a>
</g>
<!-- \\UPD -->
<g id="node9" class="node"><title>\\UPD</title>
<a xlink:href="assets.upd.class.html" xlink:title="UPD" target="_parent">
<polygon fill="none" stroke="black" points="417,-214 363,-214 363,-178 417,-178 417,-214"/>
<text text-anchor="middle" x="390" y="-193.2" font-family="Courier,monospace" font-size="11.00">UPD</text>
</a>
</g>
<!-- \\Browser -->
<g id="node10" class="node"><title>\\Browser</title>
<a xlink:href="debug.error_browser.html" xlink:title="Browser" target="_parent">
<polygon fill="none" stroke="black" points="422,-160 358,-160 358,-124 422,-124 422,-160"/>
<text text-anchor="middle" x="390" y="-139.2" font-family="Courier,monospace" font-size="11.00">Browser</text>
</a>
</g>
<!-- \\HelloWorldTest -->
<g id="node11" class="node"><title>\\HelloWorldTest</title>
<a xlink:href="tests.Test.html" xlink:title="HelloWorldTest" target="_parent">
<polygon fill="none" stroke="black" points="445.5,-106 334.5,-106 334.5,-70 445.5,-70 445.5,-106"/>
<text text-anchor="middle" x="390" y="-85.2" font-family="Courier,monospace" font-size="11.00">HelloWorldTest</text>
</a>
</g>
<!-- \\PHPUnit_Framework_TestCase -->
<g id="node14" class="node"><title>\\PHPUnit_Framework_TestCase</title>
<ellipse fill="none" stroke="black" cx="131" cy="-88" rx="130.777" ry="18"/>
<text text-anchor="middle" x="131" y="-84.3" font-family="Times New Roman,serif" font-size="14.00" fill="gray">\PHPUnit_Framework_TestCase</text>
</g>
<!-- \\HelloWorldTest&#45;&gt;\\PHPUnit_Framework_TestCase -->
<g id="edge3" class="edge"><title>\\HelloWorldTest&#45;&gt;\\PHPUnit_Framework_TestCase</title>
<path fill="none" stroke="black" d="M334.497,-82.364C313.229,-81.6393 287.859,-81.2681 262.391,-81.2506"/>
<polygon fill="none" stroke="black" points="262.248,-77.7507 252.252,-81.2624 262.256,-84.7507 262.248,-77.7507"/>
</g>
<!-- \\HelloWorldTest&#45;&gt;\\PHPUnit_Framework_TestCase -->
<g id="edge5" class="edge"><title>\\HelloWorldTest&#45;&gt;\\PHPUnit_Framework_TestCase</title>
<path fill="none" stroke="black" d="M334.497,-93.636C313.229,-94.3607 287.859,-94.7319 262.391,-94.7494"/>
<polygon fill="none" stroke="black" points="262.256,-91.2493 252.252,-94.7376 262.248,-98.2493 262.256,-91.2493"/>
</g>
<!-- \\HelloWorld -->
<g id="node12" class="node"><title>\\HelloWorld</title>
<a xlink:href="tests.test_classes.HelloWorld.html" xlink:title="HelloWorld" target="_parent">
<polygon fill="none" stroke="black" points="432,-52 348,-52 348,-16 432,-16 432,-52"/>
<text text-anchor="middle" x="390" y="-31.2" font-family="Courier,monospace" font-size="11.00">HelloWorld</text>
</a>
</g>
</g>
</svg>
