<?xml version="1.0" encoding="UTF-8" standalone="no"?>
<!DOCTYPE svg PUBLIC "-//W3C//DTD SVG 1.1//EN"
 "http://www.w3.org/Graphics/SVG/1.1/DTD/svg11.dtd">
<!-- Generated by graphviz version 2.29.20120907.0445 (20120907.0445)
 -->
<!-- Title: G Pages: 1 -->
<svg width="110pt" height="366pt"
 viewBox="0.00 0.00 110.00 366.00" xmlns="http://www.w3.org/2000/svg" xmlns:xlink="http://www.w3.org/1999/xlink">
<g id="graph0" class="graph" transform="scale(1 1) rotate(0) translate(4 362)">
<title>G</title>
<polygon fill="white" stroke="white" points="-4,5 -4,-362 107,-362 107,5 -4,5"/>
<g id="clust1" class="cluster"><title>cluster_global</title>
<path fill="none" stroke="gray" d="M20,-8C20,-8 82,-8 82,-8 88,-8 94,-14 94,-20 94,-20 94,-338 94,-338 94,-344 88,-350 82,-350 82,-350 20,-350 20,-350 14,-350 8,-344 8,-338 8,-338 8,-20 8,-20 8,-14 14,-8 20,-8"/>
<text text-anchor="middle" x="51" y="-337.2" font-family="Times,serif" font-size="11.00" fill="gray">global</text>
</g>
<!-- \\captcha -->
<g id="node1" class="node"><title>\\captcha</title>
<g id="a_node1"><a xlink:href="assets.captcha.class.html" xlink:title="captcha" target="_parent">
<polygon fill="none" stroke="black" points="82.5,-322 19.5,-322 19.5,-286 82.5,-286 82.5,-322"/>
<text text-anchor="middle" x="51" y="-301.2" font-family="Courier,monospace" font-size="11.00">captcha</text>
</a>
</g>
</g>
<!-- \\Config -->
<g id="node2" class="node"><title>\\Config</title>
<g id="a_node2"><a xlink:href="assets.config.class.html" xlink:title="Config" target="_parent">
<polygon fill="none" stroke="black" points="79,-268 23,-268 23,-232 79,-232 79,-268"/>
<text text-anchor="middle" x="51" y="-247.2" font-family="Courier,monospace" font-size="11.00">Config</text>
</a>
</g>
</g>
<!-- \\database -->
<g id="node3" class="node"><title>\\database</title>
<g id="a_node3"><a xlink:href="assets.database.class.html" xlink:title="database" target="_parent">
<polygon fill="none" stroke="black" points="85.5,-214 16.5,-214 16.5,-178 85.5,-178 85.5,-214"/>
<text text-anchor="middle" x="51" y="-193.2" font-family="Courier,monospace" font-size="11.00">database</text>
</a>
</g>
</g>
<!-- \\mailer -->
<g id="node4" class="node"><title>\\mailer</title>
<g id="a_node4"><a xlink:href="assets.mailer.class.html" xlink:title="mailer" target="_parent">
<polygon fill="none" stroke="black" points="79,-160 23,-160 23,-124 79,-124 79,-160"/>
<text text-anchor="middle" x="51" y="-139.2" font-family="Courier,monospace" font-size="11.00">mailer</text>
</a>
</g>
</g>
<!-- \\notice -->
<g id="node5" class="node"><title>\\notice</title>
<g id="a_node5"><a xlink:href="assets.notice.class.html" xlink:title="notice" target="_parent">
<polygon fill="none" stroke="black" points="79,-106 23,-106 23,-70 79,-70 79,-106"/>
<text text-anchor="middle" x="51" y="-85.2" font-family="Courier,monospace" font-size="11.00">notice</text>
</a>
</g>
</g>
<!-- \\Browser -->
<g id="node6" class="node"><title>\\Browser</title>
<g id="a_node6"><a xlink:href="debug.error_browser.html" xlink:title="Browser" target="_parent">
<polygon fill="none" stroke="black" points="82.5,-52 19.5,-52 19.5,-16 82.5,-16 82.5,-52"/>
<text text-anchor="middle" x="51" y="-31.2" font-family="Courier,monospace" font-size="11.00">Browser</text>
</a>
</g>
</g>
</g>
</svg>
